<svg xmlns="http://www.w3.org/2000/svg" width="444" height="444" viewBox="0 0 444 444" version="1.1"><title>Combined Shape</title><desc>Created with Sketch.</desc><g stroke="none" stroke-width="1" fill="none" fill-rule="evenodd"><g transform="translate(-178.000000, -178.000000)" fill="#FFFFFF"><path d="M622 400L622 622 524 584.4 524 584.2C488.6 608.1 445.9 622 400 622 277.4 622 178 522.6 178 400 178 277.4 277.4 178 400 178 522.6 178 622 277.4 622 400ZM401.5 524C469.2 524 524 469.2 524 401.5 524 333.8 469.2 279 401.5 279 333.8 279 279 333.8 279 401.5 279 469.2 333.8 524 401.5 524Z" transform="translate(400.000000, 400.000000) rotate(-360.000000) translate(-400.000000, -400.000000) "/></g></g></svg>
